/* XPM */
static char *c637f08916d64485e0a3ce9191c7f1bbxwMyusUkeDGLA32q[] = {
/* columns rows colors chars-per-pixel */
"50 50 205 2 ",
"   c #3A683D",
".  c #4C6707",
"X  c #536D00",
"o  c #586E02",
"O  c #5B7300",
"+  c #5E7C00",
"@  c #42621E",
"#  c #627B00",
"$  c #4B6D29",
"%  c #396F4B",
"&  c #376D72",
"*  c #38757A",
"=  c #517C4F",
"-  c #477851",
";  c #5C841C",
":  c #618503",
">  c #668C02",
",  c #688E03",
"<  c #6C9504",
"1  c #6F9A04",
"2  c #739D04",
"3  c #6B971A",
"4  c #76A303",
"5  c #7BA604",
"6  c #7DAB04",
"7  c #7CAF0F",
"8  c #7EB405",
"9  c #7EB20B",
"0  c #77A411",
"q  c #7BAC13",
"w  c #73A019",
"e  c #7AAA1B",
"r  c #7EB218",
"t  c #5E8E2A",
"y  c #588835",
"u  c #618F2F",
"i  c #669926",
"p  c #6C9E2F",
"a  c #719E2F",
"s  c #629433",
"d  c #689C35",
"f  c #71A625",
"g  c #74AA36",
"h  c #3A8B78",
"j  c #558946",
"k  c #5A9548",
"l  c #4A855A",
"z  c #588B5B",
"x  c #579857",
"c  c #67A54A",
"v  c #488B68",
"b  c #579663",
"n  c #438E77",
"m  c #44987A",
"M  c #81AE05",
"N  c #82B505",
"B  c #85BA05",
"V  c #8ABD05",
"C  c #82B50A",
"Z  c #86BA08",
"A  c #8BBD09",
"S  c #93BE01",
"D  c #84B613",
"F  c #85B821",
"G  c #8DC105",
"H  c #8EC105",
"J  c #8EC009",
"K  c #92C503",
"L  c #91C305",
"P  c #92C505",
"I  c #95C605",
"U  c #98C600",
"Y  c #95CA02",
"T  c #96C904",
"R  c #99CA05",
"E  c #99CC04",
"W  c #9ACD05",
"Q  c #92C308",
"!  c #9DD002",
"~  c #A2D600",
"^  c #1D5B91",
"/  c #27568B",
"(  c #1F6C9C",
")  c #306F88",
"_  c #2F7E87",
"`  c #1659AC",
"'  c #195AB4",
"]  c #1E65AB",
"[  c #167EBF",
"{  c #2378A6",
"}  c #2579B5",
"|  c #0B6FC2",
" . c #1D66D9",
".. c #167CDA",
"X. c #226CD8",
"o. c #1978E6",
"O. c #1471EC",
"+. c #197DF9",
"@. c #257CE0",
"#. c #378687",
"$. c #388B96",
"%. c #1C82B3",
"&. c #289DAA",
"*. c #2988B9",
"=. c #2F91B4",
"-. c #309DB5",
";. c #459388",
":. c #48A983",
">. c #1E97C8",
",. c #198AD9",
"<. c #1893DA",
"1. c #218EC8",
"2. c #1CABCC",
"3. c #1BB1D5",
"4. c #23A7D0",
"5. c #1983EA",
"6. c #158CED",
"7. c #0C94ED",
"8. c #1688F6",
"9. c #1898F4",
"0. c #238BF1",
"q. c #2197FA",
"w. c #19A8EA",
"e. c #18B7E8",
"r. c #0EACFF",
"t. c #16A6F8",
"y. c #19A4FE",
"u. c #15ADFC",
"i. c #0CB9FF",
"p. c #15B7F7",
"a. c #14B4FD",
"s. c #14BCFD",
"d. c #21ACE1",
"f. c #19C2EB",
"g. c #0CC7FA",
"h. c #0ECAFF",
"j. c #14C1F4",
"k. c #11CAF7",
"l. c #1DCCF4",
"z. c #14C4FE",
"x. c #13CBFE",
"c. c #18CEFC",
"v. c #07D5FB",
"b. c #0FD4FE",
"n. c #08DDFA",
"m. c #0CDCFD",
"M. c #1BD9F4",
"N. c #14D2FE",
"B. c #13DCFD",
"V. c #18D9F8",
"C. c #2FCEEF",
"Z. c #20CBF5",
"A. c #29DDF4",
"S. c #30D8F2",
"D. c #09E2FC",
"F. c #08EEFA",
"G. c #19E7F7",
"H. c #14E5FE",
"J. c #1AF5F7",
"K. c #37F6F7",
"L. c #34FAF7",
"P. c #52DAEF",
"I. c #44D2F4",
"U. c #6BD8ED",
"Y. c #71DAEE",
"T. c #61DDF4",
"R. c #47E9F6",
"E. c #57E7F5",
"W. c #48FAFA",
"Q. c #59F6FB",
"!. c #6BEEEF",
"~. c #61E5F4",
"^. c #73E7F7",
"/. c #63FFFE",
"(. c #74F4F7",
"). c #72FFFD",
"_. c #7CFFFE",
"`. c #84E5F4",
"'. c #9CE7F6",
"]. c #8CF4F5",
"[. c #85FBFB",
"{. c #8BFFFF",
"}. c #9EF1F7",
"|. c #98FBF6",
" X c #96FFFF",
".X c #9CFEFD",
"XX c #A8E7F2",
"oX c #A5FEFD",
"OX c #ACFFFE",
"+X c #BAF9F7",
"@X c #B4FFFD",
"#X c #BDFFFE",
"$X c #C9EDF5",
"%X c #CCF9F6",
"&X c #C3FDFC",
"*X c #CFFFFE",
"=X c #D4F6F7",
"-X c #D4FFFE",
";X c #DAFEFF",
":X c #E5FBF5",
">X c #E3FDFC",
",X c #EBFFFD",
"<X c #F9FBF5",
"1X c #F3FEFE",
"2X c #FEFEFC",
/* pixels */
"G V B B B B B 8 B B 8 8 G B G Z V V N B G G B I T G G G G Z 8 8 N Z V G G G B G G N 8 8 G I R ! T I ",
"G G B G G G B G V V B G G G B B G K V L I I V L T G G G P B 8 8 V G G P G G V G L G Z 8 V Q R R W I ",
"B G Z B G Q B B V G G Q G G B G I L G K T Y J G L G G G J Z B J G G G Y G G V I I T J 8 Z Z G U W G ",
"B G G V B Z 8 B G T G I G G G P R U V K T ! T I L G G B G G P W U G Y G G V L R Y R I I R G V V G J ",
"B L Y V G G Z G K L R R V Z G L R R L A I R ! Y Y K G Y Y K ! R K G G G V B I Y T T W E W K V Z G B ",
"V I T B G G G G G G E E V V V G E E I A V T ! Y L G Y M f k y G R L V G V V I Y T I T T W E G N G G ",
"T T G B B G G Y P G G V Z N Z V I T R G V A I P K Y u *.d.w.<.k G K G G G V G G G G G G J G G Z N J ",
"P G G B B B G G G G V B N V V G T T I G G G G I W 0 *.,.( ,.s.[ 3 Y G L K L V B J B Z B A G G V Z Q ",
"B B B G G G G P P G B B B G G G T I G B G G G R ! y ` i V = 7.t.s G Y Y K L Z 8 B 8 8 8 G 8 G 8 V L ",
"G G J ! Y T I T W P G G G G G G W Y G J G L T L B 0 - C ! a ,.s.j U L T T L V B G B B G G B 8 G K G ",
"Y I G Y Y Y I L G G I P G G 8 G I E E W Y G Y Y w & v 7 M = ,.c.) V G L Q V B Z 8 8 G G G B G G G L ",
"Y R L G I T L G G G I T G G G J G G I W T I I T G s ] i $ / w.s.{ N G G G 8 Z 8 8 B G G G G B G B L ",
"R Y I G B B B B G G T T P P P P G L G G Q T G G K V y M = ..p.c.#.N B B B B B 8 G G G G I G G G B B ",
"Y Y G J B G Z B G P P P J G P T E Y G B V L G G B Z G w 1.y.j.N.v V G B G J G 8 G G G G J G G 8 B B ",
"L Y R L G G Z 8 8 P G P 8 B J P T T I G V V G G V U N _ z.p.c.w.s U P Z G G G G G B B B G G G P G G ",
"V G P I Y I B Z J P P P G G G P T T T Y A Z V G R ~ u t.c.x.B...3 T I Z B B G G G G G G J T T T T L ",
"B G G K K V N V Q R G G G R Y Y P T W W Q V V I S e -.z.c.c.z.O./ r W L V G G G G Z B G W R Y I T T ",
"G I Y Y K V B B G R L L T Y Y E T T P P U S A g $.w.x.z.x.x.t.X.5.c R G V V G G G Z B G T T T T W R ",
"K U R R K V V V L R Y T Y Y R W W G B G Q b =.9.s.z.z.x.h.w.x q b F R K V V B B B V G G G A G G ! G ",
"K R W K G K V V G L R R T L I L P G G 7 _ +.u.z.z.t.s.c.4.c U F V V K R L B V G G G L L A N Z G I G ",
"Y Y R G V G G B V L U T G G V V Z G P z O.i.z.s.u.t.z.w.g K A z D G T W Y V V G G B P G B 9 Z B G G ",
"Y L L V B B G V G I L L G B 8 B 8 G A $.r.g.a.u.u.s.t.* U K Q D G L T W I V V G L G G G Z G B B G G ",
"L L L G B B B B I W A V B B B 8 B G c 9.z.r.5.8.y.s.o.d R Y I L V L T Y G V Z B G G G G P G B Z G Z ",
"G T W T L K G G G L V Z B B B G G D *.s.a.o. . .y.a.+.* V ! R L V G V V B Z B G R T L L G B G I G G ",
"V R E E E T G V V Z B B B B G 8 L c 9.s.6.@.@.o.u.s.y...k e r B G G B V G G B G P T T G G G P Y P G ",
"Z L R R R L Z Z Z B B B Z B B B V v a.9.5.0.o.6.z.s.a.y.,.^ - q Z A G G I I V N J T W P G P T Y T I ",
"V G L L G V B 8 Z J A G B B 8 B N l 8.5.q.9.6.a.z.s.s.a.r.8.` y i G K E I P G B B G G G G G G P P P ",
"G G G B B G V B J I L G B B B G V D ] +.q.6.p.z.s.z.z.z.i.a.8.' % V G L P I P G 8 G G G G B G G P T ",
"Y I Z C J G G G L W E L B B G G V D ) +.9.p.k.x.b.D.m.D.N.h.s.8.' i C C B G T P G G Y P P J G B G I ",
"G V N B L W G B G I L G B G G G G 3 ` 8.p.c.n.F.J.J.L.L.J.D.b.x.6.* N 7 G G P G G G G T T T J 8 G P ",
"G Z 8 B L E G G A I P L G G G G B l 6.z.c.H.K.].%X=X%X+X[.L.H.x.z.>.d G G B G G Y P G P P T R G G G ",
"G G Z B L E L A Z G U T G L V V j <.x.k.n.E.:X2X2X2X1X;X&X.XR.k.x.i.m L J 8 G G G T G G T T W G J 8 ",
"G G B G G A J G G Q B G Y P G N =.x.x.v.G.=X<X<X1X2X1X;X#XOX(.c.z.z.%.3 Y G L G G G I L L R Y G V A ",
"G G G G V V L G I V B G Y G Y k e.x.n.M.}.$XXX2X2X2X1X;X#XOX(.l.h.z.[ t Y K Y K G B L L K I K G V G ",
"G G B G G Q T Y G G G G P L U h i.c.S.U.<XY.XX2X2X2X1X;X&XoXE.k.h.x.| t W Y T L L G I K K G K G J Q ",
"P G G B U T Y K G G G G G G K :.x.x.T.'.:XP.=X2X1X2X,X*X@X.XE.k.N.h.,.y K V V G L L L K Y Y Y G G Q ",
"G Y E J G G L G G V V B G V S :.z.k.C.`.>XE.=X2X1X,X;X#XoX X^.l.z.N.7.y K V G L U G G G I Y Y V G P ",
"G R ! G V Z Z V G V B B Z N G b a.N.k.T.;X^.%X:X%X-X&X@X.X{.Q.V.j.N.>.3 K G I K L P G V L E R L G G ",
"B I Y P G V B G G G A C C N G i >.N.v.E.-X`.XX&X].&X@X.X{._.R.M.M.i.;.U G U R Y R I L G G T E E I G ",
"8 B Q G G L P L G G V V N B V U n h.x.E.|.!.^.oX[.oX X[.)./.A.l.N.t.l K V K K K Y G G V A G L L G B ",
"B Z Z A G G P G P G K I L L G K e 4.N.I.(.Q.R.E.[.{._.).Q.W.M.c.z.{ q K V B L I L G V V V V V V G Q ",
"G J N Z G G G G G G G R W I G Z Z k p.m.E.Q.A.f.I.)./.Q.W.A.V.p.} s U V B V Z N Z Z Z V V Z 8 Z L G ",
"I G G W G G G P R E L L V V Z N N N x f.m.K.C.c.l.R.W.K.G.V.k.,.a Y U L G V V V N B V L L G B J R L ",
"P I T T G B G Q Y Y G B V Z N N C 6 6 k 3.k.N.H.H.V.H.H.H.c.>.d V V G U P V V V B V A G G B B Z Q L ",
"B P T T L B 8 B N V V V K S N M N 5 2 < u h &.2.e.p.e.2.&.& ; 5 5 5 N U U V V L G G A B G G J 8 Z B ",
"G G G G A N 8 8 N Z L L K V N 5 4 2 2 > : + o @ $ %   @ . # , < 2 5 M V V B V U L G V B G I P P Z B ",
"V B G G G V Z Z V L K K S V A M 5 4 2 , : # : + O X X X + : > 2 2 5 N B B N V Q I G G G P I T ! W G ",
"B G G I P G V G L T G K V N B A 6 6 5 2 < < , , > > > : > 2 2 5 M M N N V B B Z G G I G G P W W R L ",
"8 L Y Y R T T I G G Y P G B G P N 8 N M 6 N 5 4 5 M M M 5 M N B V V N V V G B N N N I L G G I I T L ",
"B L T L G J L I P I Y I G G G G B N B B V B V N N V S V C V K V K V B V V V G V V V I L V V G G G V "
};
