/* XPM */
static char *_f78a5e7425e4f45a9da0dfb45c8d96a6n1wDyZpLPmGDMA5[] = {
/* columns rows colors chars-per-pixel */
"50 50 189 2 ",
"   c #2C3406",
".  c #2E3A03",
"X  c #323D03",
"o  c #354204",
"O  c #394506",
"+  c #374802",
"@  c #3C4A05",
"#  c #3E490B",
"$  c #3D5201",
"%  c #424E0B",
"&  c #425205",
"*  c #4A5B05",
"=  c #445308",
"-  c #4C5A09",
";  c #454F1F",
":  c #495617",
">  c #505D17",
",  c #4A6401",
"<  c #4D6204",
"1  c #516504",
"2  c #536B03",
"3  c #546409",
"4  c #546D0B",
"5  c #5A6C0A",
"6  c #5A7604",
"7  c #5A7706",
"8  c #5D7D03",
"9  c #5E710B",
"0  c #5C6D18",
"q  c #63780A",
"w  c #627516",
"e  c #4F5D21",
"r  c #535F26",
"t  c #535B36",
"y  c #556123",
"u  c #5D6B29",
"i  c #586738",
"p  c #647422",
"a  c #667625",
"s  c #6A7838",
"d  c #454949",
"f  c #4A4D4D",
"g  c #4C4F50",
"h  c #4E5252",
"j  c #515555",
"k  c #545857",
"l  c #565959",
"z  c #5A5E5E",
"x  c #61694F",
"c  c #687648",
"v  c #676E57",
"b  c #717B56",
"n  c #5D6162",
"m  c #656A69",
"M  c #686D6C",
"N  c #6C726E",
"B  c #777E6A",
"V  c #696C74",
"C  c #6D7273",
"Z  c #717676",
"A  c #73767A",
"S  c #757A7B",
"D  c #797E7E",
"F  c #638503",
"G  c #658A04",
"H  c #698809",
"J  c #6C9203",
"K  c #739C04",
"L  c #769C1D",
"P  c #77A405",
"I  c #7EB405",
"U  c #729323",
"Y  c #72803D",
"T  c #799634",
"R  c #778746",
"E  c #7E954D",
"W  c #7A8758",
"Q  c #7A8666",
"!  c #7B8471",
"~  c #81AD06",
"^  c #83B606",
"/  c #85BA05",
"(  c #8ABE05",
")  c #83B50C",
"_  c #86BA08",
"`  c #8CBD09",
"'  c #90BF0A",
"]  c #85AC14",
"[  c #89B717",
"{  c #8BB914",
"}  c #91BC1D",
"|  c #8CB323",
" . c #8FB32D",
".. c #8DAF34",
"X. c #86A639",
"o. c #8DC104",
"O. c #8DC108",
"+. c #92C505",
"@. c #96C904",
"#. c #99CB04",
"$. c #92C30A",
"%. c #9ACB0B",
"&. c #9AD003",
"*. c #92C414",
"=. c #99C819",
"-. c #A0CF1C",
";. c #9DC92B",
":. c #9EC937",
">. c #A4CD3B",
",. c #A9D337",
"<. c #838F5D",
"1. c #839859",
"2. c #8AA644",
"3. c #8EA950",
"4. c #818A69",
"5. c #879667",
"6. c #848C7C",
"7. c #8B9679",
"8. c #929D76",
"9. c #99AA78",
"0. c #A0C151",
"q. c #ADD358",
"w. c #B0D556",
"e. c #A5C06E",
"r. c #BAD877",
"t. c #7A7D86",
"y. c #7D8383",
"u. c #7E8288",
"i. c #848A85",
"p. c #82868A",
"a. c #858B8B",
"s. c #888E8E",
"d. c #8A9383",
"f. c #8B918D",
"g. c #929989",
"h. c #878994",
"j. c #8A8E93",
"k. c #8D9393",
"l. c #8D9098",
"z. c #919696",
"x. c #939A95",
"c. c #92979A",
"v. c #959B9B",
"b. c #999E9E",
"n. c #98A384",
"m. c #9AA390",
"M. c #9CA39E",
"N. c #A2AB96",
"B. c #999EA2",
"V. c #9DA3A3",
"C. c #A0A6A7",
"Z. c #A3AAA4",
"A. c #A1A7A9",
"S. c #A4ABAB",
"D. c #A8AEAE",
"F. c #ABB3AC",
"G. c #AFBBAB",
"H. c #A6ABB1",
"J. c #A9AEB1",
"K. c #ACB3B3",
"L. c #ADB2B9",
"P. c #B0B7B7",
"I. c #B1B8B6",
"U. c #B0B6BA",
"Y. c #B5BCBD",
"T. c #B8BFBF",
"R. c #BDD88A",
"E. c #B9C0BF",
"W. c #C2DC93",
"Q. c #C6DD9B",
"!. c #C5DAA9",
"~. c #C9D9B6",
"^. c #CFE2B1",
"/. c #B0B5C0",
"(. c #B7BEC1",
"). c #B8BFC1",
"_. c #BBC3C3",
"`. c #BCC3CA",
"'. c #C0C9C3",
"]. c #C3CACB",
"[. c #CCDAC6",
"{. c #C5CBD1",
"}. c #CBD3D3",
"|. c #CDD4DB",
" X c #D3DBDB",
".X c #D5E3CB",
"XX c #D6E2D6",
"oX c #D4DBE3",
"OX c #DCE4E7",
/* pixels */
"o.( / o.^ / I o./ / I ^ / o.( / ( ( ^ / ( ( ( @.@.( o.o.o./ I I I / o.o.o.o./ ( o.^ I I ( @.#.#.#.+.",
"o.o./ ( o.o./ / ( ( ( ( o.o.( / +.+.( +.@.+.( +.@.( ( o.+./ I ^ o.o.o.o.o.o.( o.+.o._ I ( $.#.#.#.+.",
"/ o._ / o.O./ / ( o.o.' o.o.o.( @.+.( +.@.@.( +.+.*.=.%.*.{ _ ` o.o.o.+.o.o.o.+.+.@.` ^ _ ( ` @.&.O.",
"/ o.o.( / _ ^ ^ ( @.+.+.o./ o.o.@.@.( +.#.@.-.w.W.[. X X[.G.8.2.*.o.@.+.o.( +.@.@.@.%.+.#.o.( ( +.( ",
"/ +.@.( o.O._ o.+.+.#.@.( ( ( @.#.@.' ' +.,.^.|.L.A.S.L.`.{.S.t.! 2.*.o./ / +.@.@.@.#.#.#.@.` ^ ( ( ",
"( +.@.( o.o.o.o.+.o.#.#.( ( ( ( #.#.+./ :.[.U.j.z.b.V.V.V.I.].Y.h.h.5.) o.o.+.@.#.+.@.#.#.@.o.^ ( o.",
"@.@.o./ / o.o.@.@.( o.' ^ ^ ^ ( @.@.@.;.^.(.t.B.D.J.K.S.S.V.V.'.P.s.u.3.o.o.o.o.o.( o.( +.+.O.^ ^ $.",
"+.o.o.( I / o.+.o.( ( ^ ^ ( ( o.@.@.-.!.{.u.V.J.K.V.k.A.J.J.A.Y.`.j.l.! [ +.I o.o._ ( _ _ ( +.( ^ +.",
"/ ( / o.+.O.o.+.+.o./ / ( ( ( +.@.+.q.oXa.a.V.H.L.v.S S.D.V.V.P._.M.u.u.T @.o.I o.I / I I / I / ( +.",
"o.( o.#.@.@.+.@.#.+.o.o.o.o.o.+.&.%.R.(.u.V.C V.V.s.k.V.V.S V.Y._.V.Z C E @.o.I / I / o.o.I o.o.+.+.",
"#.+.+.+.#.@.+.+.+.o.+.@.+.( / o.+.%.^.D.s.D.V.v.S M n C y.V.K.K._.M.n V E o./ o.I / o.o.o.o.o.o.( +.",
"#.#.+.o.+.@.@.o.o.o.+.+.o.o./ o.o.@.Q.L.a.z.c.u.V.f.D.k.s.u.c.V._.z.k V R / I I I / o.o.o.o./ o.( ( ",
"@.@.@.( ^ / / / o.o.@.@.+.o.@.o.O.w.XXE.u.f.! S.V.a.V.v.A.M a.k.E.v.n n W | / I _ O.o.o.#.o.o.o./ / ",
"@.@.+./ / o.^ _ O.+.+.@.O.o.o.;.W.OXOX_.k.V._.v.z.S n y.k.S.V.S.E.E.P.a.y.d.3.{ o.o.o.o.o._ / _ / / ",
"+.@.@.+.o.+._ I _ o.o.O./ I *.^.OX}.}.].V.V.V.P.V.v.s.v.P.V.S._._.U._._.z.u.h.7.| o./ / o.o.O.+.o.( ",
"( o.+.@.@.@./ ^ O.o.+.@.o.*.~.`.}.}._._.E.P.V.k.V.K.Y.E.V.V.E._.E.U.K.I._.s.S h.Q ) o.o.o.+.#.#.#.+.",
"( o.o.+.+.( ^ ( o.@.o.o.+.r.OX_.E._.E.E.Y.(.I.M.V.V.S.V.k.K._.E.Y.D.V.V.P.S.Z p.h.X.o.O.#.#.#.+.@.@.",
"o.@.@.+.+.( ^ ( +.&.+.o.-..X}.`._.Y.E.Y.Y._.E._._.Y.P.D.I._.E.Y.Y.Y.P.K.U.Y.f.p.l.5._ o.@.@.@.@.#.@.",
"+.@.#.#.+.( ( ( +.&.@.@.,.OX`._._.Y._._._._._.Y.Y._._._._._._._._.P.Y.Y.E.Y.M.s.k.f.[ o.o.` o.o.#.+.",
"+.#.#.+.o.+.( ( o.o.@.@.q.OX_._._.Y.x.y.y.v.P._.Y.K.P.(.V.a.u.V.Y._.(.Y.Y._.V.p.k.k. .+.` ^ _ ( +.o.",
"+.@.#.o.( o.( ( / +.+.@.r.}._._.`.V.f z D n C _.V.j a.U.z h N n Z K._.Y.Y.T.A.y.y.k.X.o.^ I / ( o.o.",
"@.+.+.( ^ / o.( o.+.+.+.R. X_._._.M.f M K.S k _.P.y.V.P.k z K.k.d V._.U.Y._.D.N C p.X.o.o.o.^ / o.o.",
"+.+.+.( / / / o.+.#.+./ R.oX_._._.K.z k l m v.].P.z.I.E.n j n l C Y._.E.E.(.V.n M M T +.+.o./ ^ o.` ",
"( #.#.@.+.@.( / ( +.( / Q.OX`._.Y.Y.M h h c.]._.M.g V._.N j u.H._._.P.D.b.y.m M C W } o.o./ o.+.o.O.",
"( @.#.#.#.@.( ( O./ / / !. X_.E._._.y.k y.n K.`.z.f x.`.! k U.`.(.K.M.k.b.A.V.p.M.V...o.o.o.@.@.+.o.",
"^ +.@.#.@.' ( ^ _ I / I R.}.E.E.E._.v.f v.! m _.v.f f.`.u.h Z.`.Y.K.K._.`.`.V.p.a.a. .+.o.+.@.@.+.+.",
"( o.+.+.o.( / ^ / o.o.o.[.`._.U.U._.J.h Z /.m J.V.d a.`.x.f z._.Y.Y._._._.E.x.! k.u.| _ / o.o.+.+.+.",
"+.o.( ( / ( ( / o.@.o.*.[._.E.P.K.E._.C n _._._.V.Z P.`.V.j u._.Y.Y.Y.Y.K.I.x.i.f.k.{ o.o.o.o.o.+.#.",
"@.+./ _ o.+.( _ o.&.@.=._._.E.C.V.S._.J.H._.E.U.E._._.U._.S.E.E.Y._.Y.J.S.V.b.k.s.a.} @.+.O.o./ o.@.",
"o.( ^ / +.#.o.( o.@.o.;._.K.E.J.K.E.E._.E.E.U.E.E.U.E.E.E._.E.U.Y.P.J.K.T.Y.K.k.s.a.{ @.@.+.o.I o.+.",
"o._ I ^ +.#.+.( o.o.o.>.E._.E.J.S.E.E.U.E.U.E.E.E.U.E.D.J.E.U.E.Y.P.K._.Y._.K.k.s.d.{ o.+.&.#.O.O.O.",
"o.` ^ / $.#.+.O.o.o.@.,.E.E.E.U.U.E.U.E.E.I.K.U.U.E.E.S.K.E.U.E.Y.Y.Y.Y.Y.Y.V.k.k.d.` o.@.@.#.o.O.I ",
"o.o.( o.( +.` O.o.` o.0.m.x.(.Y.Y.Y.T.J.C.C.C.C.C.I.Y.Y.Y.Y.Y.(.Y.Y.Y.).'.Y.v.a.z.4.' +.+.#.@.o./ O.",
"o.o.o./ ( ( +.+.+.+./ e.`.V.S._.Y.Y.Y.P.D.A.A.D.J.P.Y.Y.Y.Y.Y.Y.Y.Y.Y.Y._.T.S.s.l.B ' +.o.@.+.o.` +.",
"o.+.o./ ( +.@.@.+.o.o.e._.Y.V.D.I.P.Y.Y.Y.Y.Y.T._.).Y.Y.Y.Y.Y.(.T.Y.Y.Y.).T.C.z.k.Q $.@.+.+.+.o.` +.",
"@.o./ o.@.@.@.+.( o./ 9.(._.Y.P.P.P.Y.Y.Y.T.Y.P.Y.Y.Y.Y.Y.Y.Y.Y.Y.Y.Y.Y.P.K.x.z.j.4.( +.@.@.@.( o.+.",
"o.@.#.+.o.O.+.+.o.o.G 7.H.K._._.).)._.Y.Y.Y.Y.T.Y.T.Y.Y.Y.Y.Y.Y.P.T.).D.Z.A.b.c.j.<.( +.+.#.@./ o.+.",
"o.#.#.+.( _ ^ ( o./ 2 6.H.V.P._._.'.).P.Y.Y.Y.).'.).T.T.Y.Y.Y.Y.P.).J.z.V.A.V.z.j.1.( ' +.#.#.+.o.O.",
"/ +.#.o.( ( ( +.@.P @ g.E.E._._.'.P.B.S.T.Y.Y.U.U.Y.Y.Y.).Y.Y.Y.Z.D.S.C.A.C.v.k.l.1.+.( o.@.#.#.+.o.",
"I / +.o.o.o.( +.@.F ; K.G.M._.Y.S.x.b.Y.Y.Y.).P.A.C.C.Z.I.T.).T.P.b.C.C.C.S.v.s.p.E ( ( ( o.+.o.o.( ",
"( / _ O.o.o.o.+.@.8 t (.8.<.U.V.v.J.).T.Y.Y.P.Y.P.Z.C.N.8.N.n.).).P.K.S.z.b.c.a.A T ( o.` ( ` o.+.( ",
"( ` ^ _ o.o.o.o.I 2 : c e W L.V.U._.Y.Y.Y.S.C.P.).K.J.n.s g.s F.).).T.D.s.s.4.c.M U / ( ( _ I _ o.o.",
"+.+.+.@.+.( O.( 9 - o ! c s A.H.N.Z.(.J.Y.K.S.P._.Y.H.8.a 7.5 5.`.U.F.g.p.d.R B.M L +.o.+.O.^ O.%.+.",
"+.+.@.#.o./ o.~ 3 * X B Y - 6.d.r b Y./.Z.N.).).I.Z.6.W 0 w 1 s K.N.c B t.5.p D t q O.O.o./ / / O.+.",
"/ @.#.%.o.^ P q 3 & X e w < : > > B Z.N.a R `._.d.i = @ < 1 3 > r s.r : t.R 9 u & + F / o.O.O.^ ^ ( ",
"/ o.o.o.o.P 4 - & . . 1 5 1 & X % x b w 2 u Q d.b v x 0 5 3 = + % x > x v c q 1 @ + O G o.&.@.+.` ^ ",
"( ( ( o.+./ F @ . . X 3 3 % O = * % - 1 3 & # 6.W 0 0 q 9 3 - O X . % e ; s q 3 O . . + 1 K +.#.#.o.",
"^ ( o.@.o.+.( ^ J + % % % X X X = - 3 5 = X X : y @ = 4 3 - - - % . X X = w q 3 = @ 2 2 F ^ %.&.#.+.",
"^ +.@.@.@.+.@.@.+.] H 6 6 & $ , & @ $ = = O X X X o O % = 3 $ O O .   . 3 3 % X @ $ * J / o.+.@.@.+.",
"/ o.@.+.o.+.+.+.+.+.#.&.o.P P @./ K G J I K 8 , 8 G 6 6 2 $ @ $ o % 5 2 6 H q 8 K 8 , , F ^ o.o.o.( "
};
