/* XPM */
static char *_d5e55a346854bb2848461b3590d5343G9Y8z182N1wlKWLZ[] = {
/* columns rows colors chars-per-pixel */
"50 50 44 1 ",
"  c #7EB406",
". c #82B606",
"X c #85BA05",
"o c #8ABE05",
"O c #82B608",
"+ c #86BA08",
"@ c #8BBD08",
"# c #8DC203",
"$ c #8EC403",
"% c #89C005",
"& c #8AC004",
"* c #8CC005",
"= c #8CC007",
"- c #8FC107",
"; c #8DC206",
": c #8FC306",
"> c #8FC405",
", c #93C503",
"< c #92C602",
"1 c #90C204",
"2 c #93C306",
"3 c #90C504",
"4 c #95C604",
"5 c #96C704",
"6 c #97C707",
"7 c #96CA02",
"8 c #97CC03",
"9 c #97CF02",
"0 c #94C804",
"q c #95C804",
"w c #97CB04",
"e c #94C807",
"r c #97C906",
"t c #99CC03",
"y c #98C904",
"u c #9ACB04",
"i c #98C906",
"p c #9BCD05",
"a c #9BCD06",
"s c #9CCD05",
"d c #9DCF05",
"f c #91C308",
"g c #94C508",
"h c #9DD004",
/* pixels */
"&*XXXXXXXX.XXooooXXX&$o55*&#>@  .Xo**oooo. .@5ih7r",
"**Xo&*X&ooXo$&&.2#o3<,o3i&&>,+ .o*1,*&oo>1+ o5ipt$",
"X&XX&foXo1**$&o@5,o5rio$2o*&o@.@##$3,$&55r@OoXoqp*",
"o*>oXX..or35&o#,yqo2qhiq,&*o&&fp5>r<&@5rqir>i1o@>o",
"X1qo@&@@1qyioXo5yy2o3ihr,2233ofp$3**Xoqqq7pptr@Xo&",
"o5yX&3>,*#tt2@Xodt5o2rh7<3$5i3rpr$@*oo5ir,iip<*.o*",
"qq<XXo#,5ooooX+o5qi*o*rr3333*r>**2*&#o&*$o***3*X.2",
",1ooXXo$,oo..+o*5y5*X&*3r*3*@33o**,5$,XoooXXo@3@+f",
"XoX****3r>&+ooo$pq&Xo#or3oXoo5*o*#3r,$X.X ..X.X&@2",
"&*&h7qr77>*&1#o,pr**&,i3@oo3332@*>55r,oXXX.o&XXo5#",
"551,qq$r>&53#oX@q<qpq,qq35@Xoo*3&*>r*oX+X.*>&&&&*#",
"qrq>5q5*&>0r22o@$>rtrrqq53@ o@#2XX&*o.O  X>>>&&&o&",
"tq5@XXXXo>qq,>33$,oofr***XX@$##oO.+XXoX X@@5r>&&XX",
"7q3*o&..&>3g**3qiq&oo*,&oX@f,drXXo>Xo*@X&*oo*&X+XX",
",qq$>2+ +>,3X.*r08<>oo2*o3$*$pqoo53Xo#o##&ooo&f,**",
"&&$rrqX.@f>3***rr7qr@+o*rd,2f,1o5i5@Xoo#2o#o&r8qi,",
"X,,<,oXo2q1&,rqy00p82XXrr58pp>@o>3q#o&>#&+o2iytq5r",
"&i$,,oXX>r5,q7tt0r50f&>p7r7rr&oo&,r$o@,&*+Xoi5qq7i",
",rqq,ooofp7qqqqyp3.X155p9h8roX#*o,q1*XXXoo@#2o@*p>",
"qqp,#,ooo>qr,<qr3f.+o@>rr70>+X3i#o5q1oo&&oi*o.oo3*",
",qi$oooXo25q**oo@*=@++@*2r3**&35##5dqoo##X>&. +o**",
"qq,o.X#oor,#oX.. @3*X..X&33335>51#qdqoo2,*2*&&+X3*",
",<$oXo.o,d#oXXX O*32@.oo35r3,r5oo2yqooXX&$&*r&XX*@",
"#iiq,q#o@1oXXoXXf33fX+f5ipr33553@$o@XXXo5r5f=X=33*",
"o5dyi5oo@oXXoXX&&,,*@*f3pd5@Xgi2&ooo@&Xo5qi*o=<rr&",
"X#ipq1o.XO+.XXXXXX@53333o5*++**o&&*,qqoOori5&$rqr3",
"o*32&&X.+fooXX.XXXoir3&X=5*o@31oo*#rq<@XXo3*o#30>$",
"3**oX&oX@,,2XXXooof53f.Oo*3**3r2oo22,,r*Xo3#&&&33r",
"52X+2>oo5p5f.X**#iqq5&oo*#3$3idhfX.oX*p$&>rq>*&X&q",
"#o.+fp&X@5>*X>>*o@,*&>pr1&r,**,r2o.Oo@3,>&#q<r&.X5",
"oo +>p5oo333*2>&.X*1,pp51,32oo*3,3@o@oo,q$&,q7r*=*",
"&oOX3r5@o>553*o.X.o5ii&11*o..@33333#@OX&,rf&qqpr@+",
"&&oo**@f**o2,,&XoXX>>>@r5oo..*q>$q,$*32*,@#25tq$o*",
",>o&o*3333Xo,$&oo&&X>*@fooXX#qq,&3,&33q$*X5#oq,$of",
",*X&#g<52#@&$2@.XXXo3$5*+Xo*qq,oXXXo$3q,q@5r<,$#@5",
",,o*qqq,&#>$>3o.XXo23rp2..25qoXXXXXXooo&1,*,<7qo*5",
"#<r113*2*oXo@oooXof3>0g&XX,qt52#XX.XX&$2,#*2rqqo*3",
"38d>o+X@$oX+X.oo=f@*>roooX5yt5#2*ooX#><,5,*o5rr,*3",
"X2r,*@X##*@O .@@q3&qii=ooo#253,5q55#*5y<r,1*1qrt3*",
"OX**&*2,#2@o.Xoo>,&2$5@&#*#oo@@o,2$&#*5qq#$@@&$,*o",
"oX@&*>#>1#25$***3g@&*@O3qr&.XX.X$#*ooX#2,ooo@ooof@",
"o@.+o>*3$#3idr*XX*3@+..*7p*XXXX@5,5oXoXXoXXooo.+3>",
">22r3o*etp5*@@@. o*XXXorrq&XX&<hryi5#*@o++o*3oXoi3",
"$,qr3X@3,5oXoX@X@+X*3**rpq>ooo,qq$5i5**o+X@@2oXXf&",
"Xrpi3+..X@&$5*oo3*+*rp5tthq&X@&>oo>tr#,$**@@&&2O+@",
"X**>@.  OX3rqq2oX&*&,rptt$@.+o&oo&<q,&$5i*oX*f0f&.",
"ooo2&oXo@3,<,,11o###o$pdroo.Xo**$$,$>o&,52&&3<rpro",
"Xo#,#2o@$r$,oo*,o@*oXo*$>,@oo>,,$*&&oooo**,>3,qhp5",
" ,qqyirq333$#o$qoXo#&1oX1qq>o3$>,&o&&>XX+O32**5r52",
"X#q2#&#q35rq*&,rXXXo##*o*q52@@2,>,o&o&*o@@53oo****"
};
