/* XPM */
static char *_237b1d5e9ac40af87cbc6148276b05fvNrnFlMpsFKheeDW[] = {
/* columns rows colors chars-per-pixel */
"50 50 214 2 ",
"   c #020303",
".  c #090C03",
"X  c #03020C",
"o  c #0B0C0C",
"O  c #130E09",
"+  c #0D1400",
"@  c #131708",
"#  c #080A11",
"$  c #151613",
"%  c #191913",
"&  c #1B1C15",
"*  c #15151A",
"=  c #1D1D1B",
"-  c #211814",
";  c #241C1C",
":  c #1B2604",
">  c #1C2709",
",  c #1B2214",
"<  c #1A221A",
"1  c #212C04",
"2  c #222B0C",
"3  c #253402",
"4  c #2C3B03",
"5  c #29390A",
"6  c #252C14",
"7  c #22221D",
"8  c #26271C",
"9  c #23291B",
"0  c #322C1E",
"q  c #283317",
"w  c #2E3C12",
"e  c #343418",
"r  c #171923",
"t  c #1C2123",
"y  c #242524",
"u  c #292A25",
"i  c #252828",
"p  c #2D2E2B",
"a  c #2F352B",
"s  c #363B25",
"d  c #32332D",
"f  c #262A35",
"g  c #2D3339",
"h  c #343433",
"j  c #3A3B36",
"k  c #333739",
"l  c #30393C",
"z  c #3C3C3C",
"x  c #324503",
"c  c #354B02",
"v  c #384C03",
"b  c #33410C",
"n  c #3D5302",
"m  c #394915",
"M  c #3B4D2A",
"N  c #3A423B",
"B  c #435C04",
"V  c #425408",
"C  c #414914",
"Z  c #465816",
"A  c #466201",
"S  c #4A6402",
"D  c #4E6C01",
"F  c #4E6808",
"G  c #537401",
"H  c #567801",
"J  c #5A7D02",
"K  c #576F11",
"L  c #617B1C",
"P  c #424639",
"I  c #546D2E",
"U  c #2C3142",
"Y  c #353C47",
"T  c #323651",
"R  c #363E53",
"E  c #39434B",
"W  c #3C464D",
"Q  c #3B4355",
"!  c #3F4760",
"~  c #444444",
"^  c #4C4C4B",
"/  c #4E5344",
"(  c #545D4D",
")  c #424E56",
"_  c #4B4F50",
"`  c #49575C",
"'  c #545554",
"]  c #565856",
"[  c #5B5B5B",
"{  c #586145",
"}  c #62635D",
"|  c #4B5661",
" . c #4A5667",
".. c #545F64",
"X. c #58656B",
"o. c #556472",
"O. c #5A6878",
"+. c #5F727E",
"@. c #636463",
"#. c #686868",
"$. c #6C6C6A",
"%. c #6E706F",
"&. c #757576",
"*. c #75747D",
"=. c #727B7E",
"-. c #7A7B7B",
";. c #5D8202",
":. c #628503",
">. c #658A02",
",. c #678D05",
"<. c #669200",
"1. c #6C9403",
"2. c #6E9A02",
"3. c #739D03",
"4. c #739F09",
"5. c #75A203",
"6. c #7AA503",
"7. c #7CAA03",
"8. c #7EB305",
"9. c #7EB208",
"0. c #7F8470",
"q. c #81AE03",
"w. c #82B605",
"e. c #89B704",
"r. c #85BA05",
"t. c #8ABD05",
"y. c #83B608",
"u. c #86BA08",
"i. c #8ABD08",
"p. c #8DC205",
"a. c #8CC206",
"s. c #92C505",
"d. c #96CA04",
"f. c #99CC04",
"g. c #91C408",
"h. c #92C80A",
"j. c #9CD204",
"k. c #A2D605",
"l. c #A4DC06",
"z. c #5E6F82",
"x. c #6E7987",
"c. c #647588",
"v. c #73818B",
"b. c #6A8092",
"n. c #718492",
"m. c #728699",
"M. c #778B9B",
"N. c #7A8B9B",
"B. c #7D919C",
"V. c #7A8DA3",
"C. c #7C93A8",
"Z. c #838487",
"A. c #8C8C8E",
"S. c #8D8892",
"D. c #8B9296",
"F. c #83929A",
"G. c #949494",
"H. c #96989D",
"J. c #9D9D9D",
"K. c #A0A09F",
"L. c #8C95A2",
"P. c #8799A3",
"I. c #849CAE",
"U. c #8BA4B4",
"Y. c #8CA7B9",
"T. c #92A7B3",
"R. c #93AAB8",
"E. c #A4A4A5",
"W. c #A6A9AA",
"Q. c #ACADAD",
"!. c #A6AAB1",
"~. c #ACB7BE",
"^. c #B2B3B3",
"/. c #B3B3B9",
"(. c #BBBBBB",
"). c #C0C0BF",
"_. c #93AFC2",
"`. c #97B5C7",
"'. c #9AB4C6",
"]. c #99B3C8",
"[. c #9DBCCE",
"{. c #9EBDD1",
"}. c #A4B6C4",
"|. c #BBBBC2",
" X c #B3C3CD",
".X c #A2C1D4",
"XX c #A9C5D6",
"oX c #ACCADC",
"OX c #B6CCDA",
"+X c #BED4DF",
"@X c #B0CEE1",
"#X c #B6D3E4",
"$X c #C4C4C4",
"%X c #CACACA",
"&X c #D1CECD",
"*X c #CBCED1",
"=X c #CBD6DB",
"-X c #D5D4D5",
";X c #D7D7D9",
":X c #DBDBDB",
">X c #E2E0DE",
",X c #C8D9E4",
"<X c #D8DCE1",
"1X c #D9E2E7",
"2X c #D8E9F4",
"3X c #E5E5E5",
"4X c #E8E7E6",
"5X c #EAE8E7",
"6X c #E7E7EA",
"7X c #ECECEC",
"8X c #F1F0EC",
"9X c #EFF3F4",
"0X c #F2F2F2",
"qX c #FCFCFC",
/* pixels */
"a.t.r.r.r.r.r.r.r.r.8.w.r.p.r.r.t.p.p.s.j.j.f.l.l.d.s.s.s.r.8.8.w.r.t.s.p.r.e.p.t.w.w.8.g.g.f.j.f.g.",
"a.a.r.t.p.a.r.r.t.t.r.p.p.p.p.r.s.7.J S n c x n A D >.w.s.a.8.8.t.p.p.s.p.p.t.s.s.p.r.8.i.g.f.f.f.s.",
"r.t.r.r.a.g.p.w.t.p.p.p.p.p.p.2.v u / &.A.H.H.D.Z.@.j q n 2.a.a.s.p.p.s.p.p.p.s.s.d.t.w.t.e.t.d.f.p.",
"r.a.s.t.r.r.w.w.t.d.s.g.p.s.;., Z.:X7X0X0X8X0X0X0X9X4X%X*., >.j.d.p.s.p.p.t.s.s.f.d.d.g.d.g.t.i.s.t.",
"r.s.d.t.t.a.t.t.s.s.f.f.s.;.< !.qX7X3X3X3X3X3X3X3X3X3X7XqX!.6 6.f.p.p.p.r.t.d.s.d.d.f.f.f.d.t.e.r.t.",
"t.s.d.t.a.p.p.s.p.p.f.f.6.@ N.9X4X3X3X3X3X3X3X3X3X3X3X3X5XqXx.x s.d.t.a.t.t.s.d.f.s.d.f.f.d.a.y.p.p.",
"s.d.p.r.w.p.p.s.s.p.a.a.c  .#X6X5X3X3X3X3X3X3X3X3X3X3X3X3X8X>Xd 1.p.p.a.s.t.a.a.a.t.g.t.g.s.g.e.r.t.",
"s.s.p.t.r.w.p.s.a.a.a.2.t _. X>X6X3X3X3X7X0X7X5X3X3X3X3X3X4XqXS.c p.p.s.s.s.a.r.t.r.r.r.r.t.t.t.e.g.",
"r.t.w.p.s.a.t.s.p.p.s.n  ..X].:X5X3X5X0X%XJ.).8X6X3X3X3X7X4X:X*X9 7.s.s.p.s.r.w.r.8.8.w.r.w.w.p.t.s.",
"p.t.a.j.d.d.d.d.f.s.p.3 M..XT.-X7X3X0XQ.i O = A.0X3X3X6X3X%.= Z.' ;.j.d.d.d.t.w.r.r.w.a.p.r.r.t.g.g.",
"d.s.s.s.f.d.s.s.s.s.e.: C..XP.%X7X7X:Xd O h ; y %X8X3X0XK.. = ; [ n f.p.p.t.r.t.r.8.p.p.a.a.a.t.p.g.",
"f.f.s.p.s.d.s.g.a.d.7.2 Y..XF.$X0X7X(.u ~ N p & G.qX3X7X&.= z = ' w t.a.t.w.w.8.8.r.p.p.p.a.a.a.r.p.",
"f.s.s.a.r.r.r.r.a.d.5.a `.[.F.$X7X0X(.h [ [ j & G.qX6X7X&.j ^ & %.P 6.a.r.t.r.8.r.t.p.s.d.p.p.r.r.r.",
"d.f.s.t.t.t.w.w.a.f.>.N [.`.F.&X7X7X;XE h [ j y %X0X3X7XG.y ^ $ E.( >.a.t.s.t.r.p.p.t.t.p.t.r.r.r.w.",
"s.s.d.s.p.s.r.w.r.f.D ` XX`.F.;X5X3X8X^.h d d G.0X3X3X5X;X' = [ 6X[ J s.a.t.t.t.p.t.t.t.t.p.g.s.p.p.",
"r.p.s.d.s.d.t.w.a.d.c z.oXY.F.3X5X3X5X8X&XE. X0X3X3X3X3X7X;XQ.:X7X} H g.r.t.p.p.p.p.t.p.a.s.d.d.f.s.",
"r.p.s.s.p.t.r.t.h.w.b C.XXR.W.8X3X3X5X7X0XqXqX7X7X7X7X7X7X0XqX0X0X$.D f.a.a.s.p.p.r.r.p.f.f.f.d.d.d.",
"p.d.s.s.s.p.w.r.f.<.l `..XI.^.8X6X3XX.z A.;X' ^ ^ ^ ^ ^ ^ z G.-.#.$.D f.r.t.g.a.p.r.r.t.f.g.d.s.f.d.",
"s.f.f.d.s.p.e.p.d.n  .XX{.B.).9X3X3X~ u ~ #.p ^ ~ ~ ^ j 7 - y o z $.D j.a.r.r.r.t.t.t.g.g.t.t.g.f.s.",
"s.f.f.s.p.s.p.p.2.q U.oX`.F.3X5X3X8X-.z ~ # ' [ [ [ [ ^ d h %   -.$.H k.a.t.t.a.t.t.s.g.t.y.r.t.s.p.",
"s.f.f.p.a.a.p.r.x  .@X.XU.W.8X3X3X0X(.d ^ ~ ' ] ' ' [ P p d u % (.' :.k.s.t.t.p.p.t.s.p.w.8.w.t.a.p.",
"s.s.s.r.w.r.p.J t `.XX[.T.-X7X3X3X3X0X&.y [ [ ] ] [ ' d d d $ [ :XM q.k.d.t.p.s.s.p.p.p.a.r.r.r.p.p.",
"s.s.s.p.r.a.;., I.oX[.`.~.:X3X3X3X3X7X7X&.y ~ ' ' [ z p u O z >X/.3 f.d.p.t.e.e.p.p.p.p.d.t.r.r.a.t.",
"t.d.f.j.f.:.9 m.'.O.B..X.XOX5X3X3X3X3X4X9XW._ h z h y = y @.;XqX#.A d.t.r.r.r.t.s.d.s.g.p.r.p.s.g.t.",
"t.s.f.q.v   T | < o U.#X.XXX=X:X3X3X3X3X4X9X7X).W.J.K.E.%X0X0X;X9 2.a.e.p.p.r.p.s.d.f.p.r.p.s.s.s.g.",
"r.s.f.>.x v B A : +.oXM...Y.XX3X6X8X7X3X3X3X5X9X0XqX7XqX0X3X0X*.c a.a.g.d.s.r.w.e.s.f.s.p.s.f.f.s.s.",
"t.p.s.t.t.t.w.n p O.l o E {.=X8X7X(.^.8X3X5X3X3X0X^.%.:X3X0X~.< 5.a.s.d.d.s.p.r.t.a.s.p.p.p.s.s.s.s.",
"s.p.t.t.p.>.: . > D n $ I.+X3X(.D...Q.=X8X>X!.<X(.N.x.>X8X,XY A r.r.d.s.s.s.s.p.r.r.s.p.p.p.a.a.s.d.",
"d.s.r.r.w.1.;.5.s.d.x z.XX XP.U.I.X.T.=X7XH.Y. XB.`.P.>X,XO.x <.L L 5.y.p.t.f.s.a.d.f.p.t.e.7.w.p.d.",
"t.t.y.w.s.j.g.a.s.c E .X.X~..XC.) W `.=.^ +.oXn.W R.}.#Xc.6 F 0.|.S.6 c J s.f.k.s.2.B c V K C n a.s.",
"g.t.w.w.s.d.s.p.A l .X@X~.m.Q q + ` o._ A.] ! o f .X#Xc., 1.Z x.-._ r L.X.J J F Z e X * X ; ; 4 a.a.",
"a.t.r.r.g.d.g.D < m.m.W i x G 5.3 z.l *XqX-XE.a ..@XO.2 >.e.I Q o.o.y &.z e s 7 - $ o g .   F q.r.r.",
"t.p.t.t.t.s.;.@ : w x D 3.t.f.;.E b.W 6X7X7X0XQ.O.E : G ,.B ( x.x.T.~ Z.8 2 b B v . o h y # B s.t.p.",
"a.g.r.p.t.t.r.e.t.t.t.t.d.s.p.4 ) Q ` 1X5X6X6X@.. @ 6 9 y - h /.$.>X&.;X{ 7.f.j.3., g Y | Y b r.t.t.",
"p.s.p.r.s.g.f.s.s.s.t.p.s.d.>.: 5 + l OX6X6X8X$.O 0 e C V D v $.d &.^ I L p.d.f.e.2 f k z.o.b w.s.g.",
"p.p.t.p.s.d.d.s.t.a.a.g.p.p.5.2.7.> * V.2X7X9XH.: J 2.w.f.j.r.;.;.H :.,.w.p.r.p.d.4 f Y V.N.m w.s.s.",
"s.d.f.g.s.t.s.s.a.a.t.t.a.i.a.a.p.F n Z X.}.}.V.x f.j.f.j.d.s.s.a.p.p.a.a.r.p.p.f.4 R  ._.V.m w.a.s.",
"s.f.f.p.r.r.r.t.a.t.w.y.w.w.t.a.p.r.r.t.3.I M s ;.a.s.d.f.s.s.s.p.p.r.t.p.p.s.s.d.5  .c.U.O.V t.g.s.",
"r.s.f.s.g.t.e.t.a.a.t.y.w.w.i.t.d.s.s.s.f.f.t.w.a.a.p.p.s.s.s.d.d.s.d.p.p.s.f.f.e.6 Q o.x.R H f.s.a.",
"8.r.p.p.p.t.s.s.s.t.t.i.y.r.t.a.s.s.t.s.g.g.i.a.a.p.p.a.t.t.t.t.s.s.s.t.p.p.s.j.1.% l O.V.f 1.f.t.t.",
"r.r.r.a.p.p.p.a.g.p.s.s.s.t.t.s.g.g.t.t.a.t.y.a.d.d.p.r.r.r.w.r.s.a.a.s.t.e.t.f.n *  .U.F.w q.g.t.t.",
"t.t.y.t.a.p.p.a.p.p.s.s.f.d.p.e.w.a.s.t.t.y.w.g.f.f.p.w.r.r.r.t.s.s.s.e.r.t.a.3.2 R C.].Q S r.r.g.s.",
"s.s.a.d.g.t.a.d.f.f.s.s.t.t.t.w.w.i.a.t.t.t.t.d.d.d.p.r.r.p.f.f.f.f.f.s.s.a.a.B f O.C.R 4 r.t.t.d.s.",
"s.s.d.d.s.e.i.g.s.d.p.t.t.t.r.w.t.r.y.i.t.a.t.s.d.d.p.t.r.t.p.f.s.s.d.d.s.d.:.$ R O.R > 5.s.r.r.g.g.",
"t.g.f.f.s.r.w.r.r.t.i.g.f.s.t.t.i.g.i.i.f.k.d.f.f.f.d.g.i.t.a.a.p.a.p.f.k.2.+ i ` U : 3.s.a.a.w.w.t.",
"r.a.g.g.t.w.w.8.r.e.g.t.g.t.e.e.q.w.e.e.e.t.t.g.s.p.r.w.y.t.a.r.r.p.p.j.2.@ r U r c 6.p.t.s.s.g.t.r.",
"r.t.e.g.t.t.u.q.q.q.q.6.6.6.3.3.4.3.1.3.1.3.4.6.6.3.3.3.6.9.e.g.a.d.p.H + X * 4 >.a.d.p.g.f.f.f.d.t.",
"w.t.s.s.g.t.y.4.3.,.>.>.J J J :.J J J J J J :.:.:.:.:.;.:.1.6.t.a.1.3 + > A 1.w.s.s.p.s.p.s.f.f.f.s.",
"w.s.f.s.f.d.t.q.3.2.1.1.>.:.:.>.:.:.;.:.:.>.;.;.,.,.1.,.1.4.q.t.t.>.;.7.a.p.r.r.y.i.g.s.t.p.s.d.d.g.",
"r.s.d.p.p.p.s.s.t.t.e.e.q.7.q.q.5.3.5.6.6.6.7.7.7.w.e.y.q.e.g.s.s.d.a.a.a.a.p.t.r.p.g.s.t.t.p.p.g.t."
};
