/* XPM */
static char *_34e4e63f3534d9ba174056341d57af5RLLZSYFPBA5Idpgv[] = {
/* columns rows colors chars-per-pixel */
"50 50 218 2 ",
"   c #15132F",
".  c #19132F",
"X  c #151330",
"o  c #1B1633",
"O  c #1C1935",
"+  c #1F1D38",
"@  c #211733",
"#  c #231C33",
"$  c #2C1C34",
"%  c #211E39",
"&  c #311D35",
"*  c #3A1D34",
"=  c #222235",
"-  c #2C2236",
";  c #252A36",
":  c #24223B",
">  c #2A253C",
",  c #252A3D",
"<  c #332237",
"1  c #3B2037",
"2  c #3D253A",
"3  c #36293F",
"4  c #3C2D39",
"5  c #3C333C",
"6  c #451F33",
"7  c #452134",
"8  c #482437",
"9  c #44263A",
"0  c #4A2639",
"q  c #452B3B",
"w  c #4B2A3C",
"e  c #4D333E",
"r  c #4B383C",
"t  c #523236",
"y  c #2C2642",
"u  c #2D2B43",
"i  c #332D43",
"p  c #3D2D44",
"a  c #322F48",
"s  c #2F3546",
"d  c #2A3D42",
"f  c #343244",
"g  c #3A3445",
"h  c #3B3E45",
"j  c #373649",
"k  c #3D3C4C",
"l  c #472A40",
"z  c #4D2E43",
"x  c #512F42",
"c  c #443443",
"v  c #4B3543",
"b  c #4B3A43",
"n  c #423D4C",
"m  c #4B3B4B",
"M  c #523245",
"N  c #533C45",
"B  c #533548",
"V  c #543E4B",
"C  c #493E50",
"Z  c #2C4544",
"A  c #2E4846",
"S  c #2E4548",
"D  c #344547",
"F  c #3B4245",
"G  c #384947",
"H  c #3B4648",
"J  c #334B4C",
"K  c #3B4C4A",
"L  c #374C52",
"P  c #3B4F51",
"I  c #3B5253",
"U  c #3D5858",
"Y  c #4D4146",
"T  c #444748",
"R  c #444D4C",
"E  c #4A4D4D",
"W  c #514346",
"Q  c #54444C",
"!  c #58434F",
"~  c #574E4F",
"^  c #5A4C4F",
"/  c #435645",
"(  c #46524C",
")  c #48544D",
"_  c #5F504A",
"`  c #444352",
"'  c #4B4453",
"]  c #444C53",
"[  c #4C4B53",
"{  c #4C455C",
"}  c #4D485D",
"|  c #5A4352",
" . c #5D4C53",
".. c #5D4659",
"X. c #52495D",
"o. c #5E4B5A",
"O. c #4D5454",
"+. c #4C5A54",
"@. c #4A5458",
"#. c #4E5F58",
"$. c #535353",
"%. c #5C5454",
"&. c #5C5855",
"*. c #595A59",
"=. c #634D53",
"-. c #63475A",
";. c #66495A",
":. c #634D5C",
">. c #605555",
",. c #615856",
"<. c #63535B",
"1. c #655D5B",
"2. c #695F5D",
"3. c #406152",
"4. c #4F6059",
"5. c #506059",
"6. c #59655F",
"7. c #676355",
"8. c #696657",
"9. c #66615D",
"0. c #69625E",
"q. c #554F64",
"w. c #4F5D60",
"e. c #545462",
"r. c #5A5664",
"t. c #535E65",
"y. c #674D61",
"u. c #6B4F61",
"i. c #655564",
"p. c #6B5365",
"a. c #655C6E",
"s. c #6B5A69",
"d. c #735B6C",
"f. c #586465",
"g. c #5D646B",
"h. c #646264",
"j. c #6A6563",
"k. c #6D6967",
"l. c #62666B",
"z. c #6B6769",
"x. c #6D6B6A",
"c. c #716E6E",
"v. c #737666",
"b. c #72716D",
"n. c #777C6C",
"m. c #787C6D",
"M. c #6C6676",
"N. c #6E6B74",
"B. c #746E71",
"V. c #7B6F7B",
"C. c #6F7375",
"Z. c #757575",
"A. c #787676",
"S. c #777973",
"D. c #797A75",
"F. c #777778",
"G. c #7A767A",
"H. c #777878",
"J. c #7B7A7C",
"K. c #82767E",
"L. c #807C7F",
"P. c #7D8171",
"I. c #85857A",
"U. c #82817F",
"Y. c #7E7E81",
"T. c #837683",
"R. c #827C82",
"E. c #887887",
"W. c #837C89",
"Q. c #8D7C8C",
"!. c #907C8C",
"~. c #917F90",
"^. c #7D8587",
"/. c #7E8688",
"(. c #7E8D98",
"). c #848184",
"_. c #8A8486",
"`. c #888984",
"'. c #8B838B",
"]. c #8E888D",
"[. c #908986",
"{. c #90868E",
"}. c #93898A",
"|. c #998D8F",
" X c #879388",
".X c #99918A",
"XX c #8E8490",
"oX c #8E8B99",
"OX c #938594",
"+X c #948A95",
"@X c #998E90",
"#X c #978798",
"$X c #988798",
"%X c #978C98",
"&X c #9C8D9C",
"*X c #879293",
"=X c #899596",
"-X c #8B9299",
";X c #889C9A",
":X c #8A999D",
">X c #9B9194",
",X c #979799",
"<X c #9D909F",
"1X c #A08E9E",
"2X c #8997A6",
"3X c #8D9CA2",
"4X c #9D94A3",
"5X c #9C98A7",
"6X c #989DA8",
"7X c #8AA1A5",
"8X c #8CA3AB",
"9X c #92A5AA",
"0X c #8DA7B3",
"qX c #93A6B3",
"wX c #95A8B5",
"eX c #97B7B5",
"rX c #9ABAC6",
"tX c #9ABAC7",
/* pixels */
".X.X@X`.k.; T n.9XeX|.|.|.|.@X@X@X@X@X@X}.P.T ; 8. XeX,X>X>X|.|.@X@X@X@X@X@X@X}.I.E ; 7. XeX,X@X@X|.",
"[.{.].'.b.> ] `.3X3X].{.{.{.{.{.{.{.{.OX'.U.' > Z.;X8X+X{.{.].].{.{.'.{.{.{.OX'.).[ - C.=X8X,X].].}.",
"m.S.S.XX~.8 a.rX^.Z.F.A.S.F.Z.Z.Z.S.A.Z.J.<Xu.q 0X8XA.Z.A.Z.S.F.A.A.Z.F.A.Z.Z.G.4Xp.9 8X8XZ.Z.F.S.S.",
"n.S.Z.R.T.8 i.6XJ.Z.Z.F.S.F.Z.F.Z.Z.Z.Z.H.'.-.w oX-XS.Z.Z.F.Z.Z.Z.F.Z.Z.S.F.Z.F.'.u.7 oXoXZ.Z.Z.F.S.",
"n.S.F.S.x.9 :.%XJ.Z.A.Z.Z.F.Z.F.F.Z.F.Z.Z.Z.Q l !.'.Z.Z.F.F.Z.Z.F.Z.Z.Z.Z.Z.S.Z.Z.~ 9 Q.'.Z.Z.Z.Z.S.",
"m.A.F.k.*.D g.&XJ.Z.F.Z.Z.Z.Z.F.Z.Z.S.F.S.i.R G XX'.Z.Z.Z.Z.F.Z.Z.Z.F.Z.F.F.F.C.j.R J Q.XXZ.Z.F.F.S.",
"m.S.F.z.%.S f.&XJ.Z.Z.Z.F.Z.F.S.A.Z.A.B.j.1.R J ~.XXZ.Z.Z.F.Z.A.F.Z.F.S.Z.Z.S.B.1.T h Q.XXZ.Z.Z.Z.S.",
"m.S.S.k.%.S f.&XJ.Z.Z.F.Z.Z.S.A.F.Z.Z.j.&.1.R J XXOXZ.Z.Z.Z.F.S.Z.Z.F.Z.Z.F.Z.Z.1.N 0 Q.XXS.Z.S.S.S.",
"S.D.H.x.,.4 p.&XJ.Z.S.F.D.F.H.H.H.b.i.b.b.9.Y l ~.XXZ.Z.S.S.Z.F.A.A.S.S.F.H.H.Z.j.[ D ~.XXZ.S.F.F.S.",
"v.b.Z.9.! * o.+XR.J.S.Z.c.c.c.c.b.k.,.x.x. .v 2 T.XXR.H.Z.S.F.Z.c.c.F.B.x.B.B.x.=.H d Y.'.Y.F.S.F.S.",
"7.7.1.N 1 o ' J.%X+XF.j.1.1.1.1.7.1.1.9.%.0 $ y x.].4XR.H.J.H.F.1.c.H.j.1.1.0.>.w & % x.'.&XR.H.J.D.",
"/ T v 2 # O y k | o.@.h i f 5 f H K ( b w $ @ + j ` -.V V V n k g j k m v e T H $ @ + f C ;.| ' n k ",
"3.] M p u a y y l m P s : O % > L U P m z i u u y p w z x x p : + + > c B z T L i u a y p w w 9 o : ",
"eXqX#X#XOXOXOXOXOX+X#XY.l.+ ` H.wXwXOX#XOXOX#X#X$XW.Z.'.$X$XR.l.+ n F.8XwXOX#XOX#XOXOXOXOXOXJ.h.+ O.",
";X=X).).'.).'.'.'.).'.'.G.$ r.3X2X-X'.).W._.'.'.K.Z.x.R.'.W.'.G.< e.:X2X-X'.).'.'.W.'.'.'.'.'.A.& *.",
"v.n.Z.Z.Z.Z.Z.Z.Z.Z.Z.'.Q.6 M.rXH.B.Z.S.Z.Z.Z.b.1.>.,.c.S.Z.'.OXw N.rXY.x.Z.Z.Z.Z.Z.Z.Z.C.Z.OXE.8 <.",
"n.Z.F.Z.Z.Z.Z.Z.Z.F.S.H.B.6 p.5XJ.Z.S.Z.F.F.z.2.Q.W.B.Z.Z.Z.J.F.w p.5XJ.S.G.Z.F.Z.Z.Z.S.Z.Z.J.c.8 ,.",
"m.A.Z.Z.F.Z.F.Z.F.S.F.Z.j.4 s.&XJ.Z.Z.F.S.c.x.c.'.'.F.S.Z.Z.Z.h.5 i.&XJ.Z.S.Z.Z.Z.F.F.F.F.Z.Z.i.4 &.",
"m.Z.F.F.Z.Z.Z.F.Z.Z.F.h.%.Z g.&XG.Z.F.F.B.&.G.&XG.Z.S.Z.S.A.j.%.Z g.1XL.Z.Z.Z.F.F.Z.Z.Z.S.F.j.$.S f.",
"m.Z.S.Z.Z.F.Z.F.F.Z.S.j.*.Z l.&XJ.Z.S.F.S.B.F.J.A.A.Z.Z.F.A.z.%.4 p.<XJ.Z.F.F.Z.Z.Z.Z.F.S.A.j.%.Z 6.",
"m.S.A.S.F.S.F.Z.Z.S.F.j.&.Z g.&XJ.F.Z.F.Z.F.Z.Z.Z.S.F.S.F.F.j.%.7 p.&XJ.b.Z.S.Z.Z.F.S.S.F.S.j.$.Z 6.",
"m.b.F.S.F.S.F.F.F.F.H.z.&.Z l.4XG.Z.S.Z.F.F.D.D.F.F.F.D.H.H.x.>.0 p.1XL.z.>.c.J.F.F.A.A.G.F.j.*.A f.",
"_._.F.c.x.D.S.k.k.k.c.-.b , e.].'.).H.D.F.H.Z.k.z.x.k.k.k.c.>.M & X.].].R.c.z.k.z.c.z.z.x.x. .b , *.",
"}.W.Z.j.,.N.j.%.%.%.,.e * o k S.~.Q.N.Z.c.C.i.%.%.%.%.>.>.,.b * O k S.!.W.Z.h.%.%.%.>.%.%.<.w * O O.",
"t e A 5 7 : : > + # 7 $ .   o : 9 w 9 0 2 : : > % & 6 7 4 Z ; o   o % 9 c A A d + : > : $ 7 @ o X = ",
"=.:.t.i.o.n u + j { a.q.} X.{ { o.;.;.;.o.k y O j X.a.y.:.f.e.{ q.{ { ..:.t.f.t.` y O j } s.q.{ } } ",
".X>X&X1X%X).} + h.*XrX6X&X&X&X&X&X&X&X4X+XL.` : z.;XrX5X&X&X&X&X&X&X&X&X&X#X1X+X).] + j.*XrX5X&X&X>X",
"I.J.R.J.R.>Xs.1 (.8X/.Y.L.L.L.L.G.Y.L.Y.R.%X:.2 2X7X^.Y.R.J.R.J.J.R.K.Y.J.R.L.R.&Xi.* 2X7X/.Y.Y.L.U.",
"n.S.Z.Z.D.+Xd.9 2X6Xc.Z.Z.Z.Z.Z.S.Z.Z.Z.H.%X:.w 2X3XB.Z.Z.Z.Z.Z.Z.Z.Z.Z.Z.Z.Z.H.%Xp.8 2X3XB.Z.Z.S.S.",
"n.Z.Z.Z.S.J.%.7 E.XXZ.Z.Z.Z.Z.Z.G.Z.Z.Z.D.J.| 0 ~.].Z.Z.Z.Z.Z.Z.F.Z.Z.Z.Z.Z.Z.Z.J. .q Q.].Z.Z.Z.S.S.",
"n.S.F.F.S.x.| 8 E.OXB.Z.F.Z.F.F.Z.Z.Z.H.Z.j.' h XXOXZ.Z.Z.Z.Z.Z.F.Z.Z.F.Z.Z.Z.Z.x.V 0 Q.XXZ.Z.F.F.S.",
"n.Z.S.F.Z.9.Y 9 E.OXZ.Z.F.Z.S.Z.F.Z.Z.F.b.1.T J XXXXZ.Z.Z.F.Z.Z.F.S.Z.Z.Z.F.S.Z.1.N q Q.XXZ.Z.Z.Z.S.",
"n.S.F.F.Z.1.E D W.OXZ.Z.Z.Z.Z.Z.F.Z.F.F.B.1.b w Q.].Z.Z.Z.Z.S.Z.Z.Z.Z.A.F.Z.F.Z.1.R S '.XXZ.Z.Z.Z.S.",
"n.S.Z.F.Z.2.) A W.+XZ.Z.Z.Z.S.Z.S.F.Z.F.Z.1.Y n XXOXZ.Z.F.Z.F.F.F.Z.Z.F.Z.F.F.B.1.R J '.XXZ.Z.Z.F.S.",
"S.S.F.F.Z.0.[ A W.OXS.Z.Z.Z.F.F.F.S.S.F.c.1.K J '.XXZ.Z.F.Z.F.F.Z.F.Z.Z.F.S.S.B.2.R J Q.'.S.Z.Z.F.S.",
"m.D.F.F.D.0.Q q E.+XZ.Z.Z.F.F.F.F.F.F.H.Z.9.( J XXXXb.Z.Z.Z.Z.S.F.F.F.F.H.H.H.Z.j.W q ~.OXZ.h.h.H.D.",
"v.b.c.Z.x.%.v * V.].R.F.Z.B.x.B.c.c.b.Z.z.=.h S W.XXJ.F.F.A.A.A.B.c.c.c.c.c.B.x. .v 2 T.].R.z.0.x.b.",
"8.1.1.2.>.w & + h.'.&X_.Z.1.1.1.1.1.,.0.%.0 $ : x.'.&XR.F.F.H.A.1.1.9.1.1.1.2.%.w & % x.'.&XR.Z.1.9.",
"r t e e w $ o o u n -.n j f i 3 F G G b q $ o o i ] w.Q N N n j g i i F G G b q $ o o i L w.Q N w r ",
"r N M B v i u a y i e 3 : O + u I U I m z u a i y s J m x x p % O % y L U I Y v i a a y f L v z x g ",
"}.OXOXOX~.B.Y.OXOXOXOXY.h.O k Z.0XqXOXOXOXOXXXOXXXOXOX#XOX#XR.h.% n S.8XqXOXOXOXOXXXOXXXOXOXOXOXOXOX",
"`.'.'.'.'.c.A.'.'.'.'.].Y.& r.6X:X-X'.'.'.'.'.'.'.'.Q.).'.'.].R.< q.7X2X-X'.'.'.'.].'.'.'.'.'.'.'.).",
"n.S.Z.Z.b.,.j.Z.S.Z.Z.XXQ.7 M.rXY.B.Z.Z.Z.Z.Z.Z.Z.Z.Z.Z.Z.Z.XX~.0 M.rXY.c.Z.Z.Z.Z.Z.Z.Z.Z.Z.Z.Z.Z.Z.",
"n.S.F.F.S.Z.z.1.B.F.Z.H.B.7 p.5XJ.Z.Z.Z.Z.Z.Z.Z.Z.S.Z.Z.Z.Z.J.A.8 p.5XG.Z.S.Z.Z.F.Z.Z.Z.Z.F.Z.Z.Z.S.",
"n.Z.Z.Z.Z.F.N.h.B.F.S.Z.h.4 i.&XJ.Z.S.Z.Z.Z.Z.Z.F.Z.F.Z.S.F.B.h.5 i.1XG.Z.Z.Z.F.Z.F.Z.F.Z.Z.Z.F.F.S.",
"n.S.S.Z.Z.F.S.F.Z.S.F.j.%.Z g.&XG.Z.Z.F.Z.F.S.Z.Z.F.Z.S.F.F.j.%.A g.1XJ.Z.Z.Z.Z.Z.Z.F.S.Z.Z.S.Z.S.S.",
"n.S.F.Z.F.S.F.S.Z.F.H.j.%.Z l.<XJ.S.Z.Z.F.Z.Z.Z.Z.F.F.F.S.F.z.&.A l.1XJ.Z.Z.Z.Z.Z.F.S.F.F.S.Z.F.S.D.",
"S.A.F.B.B.Z.Z.Z.C.Z.S.1.~ d f.&XW.G.F.Z.F.F.Z.Z.F.S.N.Z.Z.S.2.~ Z r.&XR.F.F.F.Z.F.Z.B.F.Z.B.C.Z.S.b.",
"S.D.H.k.2.F.c.1.1.1.7.N 7 O ' Y.%XOXS.F.F.J.z.1.A.b.1.1.1.7.N 7 O ` J.#X+XF.F.F.J.x.1.A.c.1.1.1.1.1.",
"_ %.5.) ) #.$.N N W ) g - + f E <.<.^ *.#.#.O.) 4.$.N N W ) g - # f [ <.1.#.#.#.4.$.) #.+.( W N ) T "
};
